<?xml version="1.0" encoding="UTF-8"?><svg id="Layer_1" xmlns="http://www.w3.org/2000/svg" xmlns:xlink="http://www.w3.org/1999/xlink" viewBox="0 0 200 80"><defs><style>.cls-1{fill:url(#linear-gradient);}.cls-1,.cls-2,.cls-3,.cls-4{stroke-width:0px;}.cls-2{fill:none;}.cls-5{filter:url(#drop-shadow-1);}.cls-3{fill:#ccebf1;}.cls-4{fill:#fff;}.cls-6{filter:url(#drop-shadow-2);}.cls-7{clip-path:url(#clippath);}</style><filter id="drop-shadow-1" filterUnits="userSpaceOnUse"><feOffset dx="0" dy="0"/><feGaussianBlur result="blur" stdDeviation="1.1"/><feFlood flood-color="#231f20" flood-opacity=".35"/><feComposite in2="blur" operator="in"/><feComposite in="SourceGraphic"/></filter><linearGradient id="linear-gradient" x1=".42" y1="15.57" x2="22.8" y2="33.61" gradientUnits="userSpaceOnUse"><stop offset="0" stop-color="#fff" stop-opacity=".4"/><stop offset=".12" stop-color="#fff" stop-opacity=".43"/><stop offset=".31" stop-color="#fff" stop-opacity=".51"/><stop offset=".54" stop-color="#fff" stop-opacity=".65"/><stop offset=".8" stop-color="#fff" stop-opacity=".84"/><stop offset="1" stop-color="#fff"/></linearGradient><filter id="drop-shadow-2" filterUnits="userSpaceOnUse"><feOffset dx="0" dy="0"/><feGaussianBlur result="blur-2" stdDeviation="1.1"/><feFlood flood-color="#231f20" flood-opacity=".35"/><feComposite in2="blur-2" operator="in"/><feComposite in="SourceGraphic"/></filter><clipPath id="clippath"><path class="cls-2" d="M45.1,55.19v-7.92h6.75c-1.69-5.53-6.83-9.55-12.92-9.55-7.46,0-13.51,6.05-13.51,13.51s6.05,13.51,13.51,13.51c6.08,0,11.23-4.02,12.92-9.55h-6.75Z"/></clipPath></defs><path class="cls-4" d="M33.36,9.63v24.9h-2.46V9.63h2.46Z"/><path class="cls-4" d="M50.57,30.91c-.41.79-1.02,1.64-1.74,2.29-1.3,1.16-2.9,1.74-4.71,1.74-3.42,0-7-2.15-7-7.41,0-4.24,2.6-7.51,6.87-7.51,2.77,0,4.51,1.37,5.36,2.6.89,1.26,1.4,3.45,1.33,5.33h-11.03c.03,2.94,2.05,4.82,4.51,4.82,1.16,0,2.08-.34,2.9-1.02.65-.55,1.16-1.26,1.47-1.95l2.05,1.13ZM48.15,25.89c-.41-2.22-2.08-3.69-4.17-3.69s-3.79,1.57-4.17,3.69h8.33Z"/><path class="cls-4" d="M65.29,20.36h2.46v14.18h-2.46v-1.98c-.82,1.06-2.36,2.39-4.85,2.39-3.59,0-6.9-2.53-6.9-7.51s3.28-7.41,6.9-7.41c2.73,0,4.2,1.5,4.85,2.36v-2.02ZM56.07,27.43c0,3.04,1.71,5.33,4.65,5.33s4.71-2.49,4.71-5.29c0-3.65-2.53-5.26-4.71-5.26-2.43,0-4.65,1.78-4.65,5.23Z"/><path class="cls-4" d="M72.4,20.36h2.46v1.54c.24-.38,1.3-1.88,3.21-1.88.75,0,1.57.27,2.19.58l-1.16,2.22c-.55-.38-1.06-.48-1.43-.48-.99,0-1.61.41-1.98.89-.41.55-.82,1.5-.82,3.83v7.48h-2.46v-14.18Z"/><path class="cls-4" d="M53.02,55.48c0-4.3,3.18-7.48,7.51-7.48s7.51,3.18,7.51,7.48-3.21,7.45-7.51,7.45-7.51-3.14-7.51-7.45ZM55.54,55.48c0,3.48,2.46,5.26,4.99,5.26s4.99-1.81,4.99-5.26-2.39-5.29-4.99-5.29-4.99,1.84-4.99,5.29Z"/><path class="cls-4" d="M71.8,48.34h2.46v1.5c.79-1.16,2.02-1.84,3.52-1.84,2.56,0,3.59,1.81,3.86,2.29,1.37-2.15,3.31-2.29,4.27-2.29,4.2,0,4.61,3.52,4.61,5.53v8.98h-2.46v-8.61c0-1.61-.2-3.72-2.53-3.72-2.84,0-3.14,2.73-3.14,4.44v7.89h-2.46v-8.4c0-.99.03-3.93-2.56-3.93-2.8,0-3.11,2.9-3.11,4.61v7.72h-2.46v-14.18Z"/><path class="cls-4" d="M97.66,70.37h-2.46v-22.03h2.46v1.98c1.67-2.08,3.83-2.32,4.85-2.32,4.44,0,6.9,3.69,6.9,7.51s-2.49,7.41-6.8,7.41c-2.29,0-3.89-1.02-4.95-2.39v9.84ZM106.88,55.51c0-3.48-2.36-5.33-4.65-5.33s-4.71,1.88-4.71,5.29c0,2.9,1.84,5.26,4.75,5.26s4.61-2.39,4.61-5.23Z"/><path class="cls-4" d="M112.28,55.48c0-4.3,3.18-7.48,7.51-7.48s7.51,3.18,7.51,7.48-3.21,7.45-7.51,7.45-7.51-3.14-7.51-7.45ZM114.8,55.48c0,3.48,2.46,5.26,4.99,5.26s4.99-1.81,4.99-5.26-2.39-5.29-4.99-5.29-4.99,1.84-4.99,5.29Z"/><path class="cls-4" d="M131.06,48.34h2.46v1.64c.44-.58,1.71-1.98,4.06-1.98,1.67,0,3.21.68,4.06,1.95.72,1.06.82,2.22.82,3.79v8.78h-2.46v-8.71c0-.85-.07-1.84-.65-2.6-.48-.61-1.23-1.02-2.32-1.02-.85,0-1.78.24-2.49,1.09-.96,1.13-1.02,2.8-1.02,3.83v7.41h-2.46v-14.18Z"/><path class="cls-4" d="M159.69,58.89c-.41.79-1.02,1.64-1.74,2.29-1.3,1.16-2.9,1.74-4.71,1.74-3.42,0-7-2.15-7-7.41,0-4.24,2.6-7.51,6.87-7.51,2.77,0,4.51,1.37,5.36,2.6.89,1.26,1.4,3.45,1.33,5.33h-11.03c.03,2.94,2.05,4.82,4.51,4.82,1.16,0,2.08-.34,2.9-1.02.65-.55,1.16-1.26,1.47-1.95l2.05,1.13ZM157.26,53.87c-.41-2.22-2.08-3.69-4.17-3.69s-3.79,1.57-4.17,3.69h8.33Z"/><path class="cls-4" d="M163.54,48.34h2.46v1.64c.44-.58,1.71-1.98,4.06-1.98,1.67,0,3.21.68,4.06,1.95.72,1.06.82,2.22.82,3.79v8.78h-2.46v-8.71c0-.85-.07-1.84-.65-2.6-.48-.61-1.23-1.02-2.32-1.02-.85,0-1.78.24-2.49,1.09-.96,1.13-1.02,2.8-1.02,3.83v7.41h-2.46v-14.18Z"/><path class="cls-4" d="M182.13,50.59v11.92h-2.46v-11.92h-1.5v-2.25h1.5v-5.12h2.46v5.12h2.46v2.25h-2.46Z"/><path class="cls-4" d="M192.75,51.62c-.34-.82-1.06-1.43-1.98-1.43s-1.71.51-1.71,1.61c0,1.02.68,1.33,2.29,2.02,2.05.85,3.01,1.5,3.55,2.19.61.75.75,1.5.75,2.29,0,2.97-2.15,4.65-4.88,4.65-.58,0-3.76-.07-4.95-3.62l2.12-.89c.27.75,1.09,2.32,2.87,2.32,1.61,0,2.32-1.2,2.32-2.25,0-1.33-.96-1.78-2.29-2.36-1.71-.75-2.8-1.3-3.45-2.08-.55-.68-.65-1.37-.65-2.08,0-2.49,1.74-3.96,4.13-3.96.75,0,2.77.14,3.89,2.56l-2.02,1.06Z"/><circle class="cls-3" cx="38.93" cy="51.23" r="5.83"/><circle class="cls-3" cx="16.37" cy="23.28" r="5.83"/><path class="cls-3" d="M38.25,54.26l-7.98-1.79c-10.02-2.25-17.02-10.99-17.02-21.26v-7.93h6.22v7.93c0,7.34,5,13.59,12.16,15.19l7.98,1.79-1.36,6.07Z"/><g class="cls-5"><path class="cls-1" d="M24.94,27.54c-.39.78-.89,1.51-1.48,2.16-.59.65-1.26,1.22-2,1.69-1.53.98-3.29,1.49-5.09,1.49-.65,0-1.3-.07-1.93-.2-.62-.13-1.22-.31-1.8-.56-.57-.24-1.12-.54-1.63-.89-.51-.34-.99-.74-1.42-1.17-.43-.43-.83-.91-1.17-1.42-.35-.51-.65-1.06-.89-1.63-.25-.58-.43-1.19-.56-1.8-.13-.63-.2-1.28-.2-1.93s.07-1.3.2-1.93c.13-.62.31-1.22.56-1.8.24-.57.54-1.12.89-1.63.34-.5.73-.97,1.15-1.4l-5.22-5.22v11.99c0,6.63,5.39,11.99,12.03,11.99,3.29,0,6.28-1.34,8.44-3.51,1.25-1.25,2.23-2.78,2.85-4.49h-2.6l-.12.27Z"/><path class="cls-4" d="M24.31,27.46s-.03.06-.05.09c-.03.06-.07.12-.1.18-.02.04-.04.08-.07.12-.03.06-.07.11-.1.17-.02.04-.05.08-.07.12-.04.05-.07.11-.11.16-.03.04-.05.08-.08.11-.04.05-.08.11-.11.16-.02.03-.05.07-.08.1-.09.12-.18.24-.28.35-.01.02-.02.03-.04.05-.04.05-.09.11-.14.16-.03.03-.05.06-.08.09-.05.05-.09.1-.14.15-.03.03-.06.06-.09.09-.03.03-.05.05-.08.08-.69.68-1.48,1.26-2.35,1.7,0,0,0,0,0,0-.18.09-.37.18-.56.26,0,0,0,0,0,0-.28.12-.57.22-.87.31,0,0-.01,0-.02,0-.19.06-.39.11-.59.15,0,0-.02,0-.03,0-.2.04-.4.08-.6.11,0,0-.01,0-.02,0-.1.01-.19.03-.29.04,0,0-.01,0-.02,0-.1.01-.21.02-.31.03,0,0,0,0,0,0-.1,0-.2.01-.3.02-.01,0-.03,0-.04,0-.1,0-.2,0-.31,0-1.71,0-3.3-.48-4.67-1.3-2.6-1.58-4.34-4.44-4.34-7.7,0-2.47,1-4.72,2.62-6.34,1.63-1.64,3.89-2.66,6.38-2.66.44,0,.87.03,1.29.09,2.95.43,5.45,2.33,6.74,4.91h.54s2.72,0,2.72,0c-1.67-4.66-6.09-7.99-11.29-7.99H4.35s5.22,5.22,5.22,5.22c-.43.43-.82.9-1.15,1.4-.35.51-.65,1.06-.89,1.63-.25.58-.43,1.19-.56,1.8-.13.63-.2,1.28-.2,1.93s.07,1.3.2,1.93c.13.62.31,1.22.56,1.8.24.57.54,1.12.89,1.63.34.51.74.99,1.17,1.42.43.43.91.83,1.42,1.17.51.35,1.06.65,1.63.89.58.25,1.19.43,1.8.56.63.13,1.28.2,1.93.2,1.8,0,3.56-.52,5.09-1.49.74-.47,1.41-1.04,2-1.69.59-.65,1.09-1.38,1.48-2.16l.12-.27h-.66c-.03.06-.07.13-.1.19Z"/></g><g class="cls-6"><g class="cls-7"><path class="cls-4" d="M38.93,42.29c4.93,0,8.94,4.01,8.94,8.94s-4.01,8.94-8.94,8.94-8.94-4.01-8.94-8.94,4.01-8.94,8.94-8.94M38.93,39.18c-6.65,0-12.05,5.39-12.05,12.05s5.39,12.05,12.05,12.05,12.05-5.39,12.05-12.05-5.39-12.05-12.05-12.05h0Z"/></g></g></svg>